<svg width="51" height="49" viewBox="0 0 51 49" fill="none" xmlns="http://www.w3.org/2000/svg">
<g opacity="0.64">
<path d="M76.787 2.38148L110.591 71.3011C112.142 74.464 110.68 77.9923 107.337 79.1544L51.3768 98.6033C48.0333 99.7653 44.0401 98.133 42.4887 94.97L8.68468 26.0504C7.13328 22.8875 8.59529 19.3591 11.9388 18.1971L67.9429 -1.26708C71.2628 -2.37221 75.2356 -0.781491 76.787 2.38148Z" fill="#E3E4E3"/>
<path d="M108.1 80.6981L52.1313 100.15C47.9073 101.618 42.8827 99.5637 40.9228 95.5678L7.09284 26.5971C5.08887 22.6165 6.97245 18.1618 11.1965 16.6938L67.2094 -2.77293C71.4335 -4.24096 76.458 -2.18708 78.418 1.8088L112.227 70.7378C114.187 74.7337 112.368 79.2148 108.1 80.6981ZM12.7073 19.7739C10.2433 20.6303 9.18199 23.1915 10.3253 25.5224L44.1144 94.4099C45.2577 96.7408 48.1565 97.9257 50.6205 97.0694L106.633 77.6027C109.097 76.7463 110.159 74.1851 109.015 71.8542L75.2059 2.92512C74.0626 0.594185 71.1638 -0.590745 68.6998 0.265607L12.6869 19.7323L12.7073 19.7739Z" fill="#E3E4E3"/>
<path d="M73.2918 3.62678L107.096 72.547C108.648 75.7101 107.186 79.2384 103.842 80.4004L47.8374 99.8648C44.4938 101.027 40.5006 99.3945 38.9491 96.2315L5.14473 27.3112C3.59332 24.1482 5.05534 20.6199 8.3989 19.4578L64.4036 -0.00653502C67.7676 -1.12697 71.7404 0.463772 73.2918 3.62678Z" fill="#E3E4E3"/>
<path d="M104.604 81.9444L48.5909 101.411C44.3669 102.879 39.3219 100.784 37.362 96.7878L3.55245 27.8588C1.59248 23.8629 3.43205 19.4234 7.65612 17.9554L63.669 -1.51131C67.8931 -2.97934 72.9176 -0.925463 74.8776 3.07042L108.687 71.9995C110.647 75.9953 108.828 80.4764 104.604 81.9444ZM9.16693 21.0356C6.70289 21.8919 5.6416 24.4531 6.78492 26.7841L40.574 95.6715C41.7173 98.0024 44.6161 99.1873 47.0801 98.331L103.093 78.8643C105.557 78.0079 106.618 75.4467 105.475 73.1158L71.6655 4.18674C70.5222 1.85581 67.6234 0.670875 65.1594 1.52723L9.14652 20.9939L9.16693 21.0356Z" fill="#F5F5F5"/>
<path d="M43.7689 15.2263L48.4123 30.2123L51.0491 38.7121C51.9726 41.7403 50.6522 44.6745 48.0174 46.0754C47.6884 46.2383 47.3594 46.4011 47.0101 46.5225C46.6608 46.6439 46.2911 46.7238 45.9214 46.8038C41.9454 47.5545 37.7853 45.1172 36.6237 41.3952L34.6344 35.0486L29.9503 19.9797L43.7485 15.1848L43.7689 15.2263Z" fill="#F5F5F5"/>
<path d="M47.3379 48.3573C49.341 43.6958 46.4332 38.1307 40.8433 35.9275C35.2533 33.7243 29.0979 35.7172 27.0948 40.3788C25.0917 45.0404 27.9995 50.6054 33.5894 52.8086C39.1794 55.0118 45.3348 53.0189 47.3379 48.3573Z" fill="#F5F5F5"/>
<path d="M62.9892 37.6324C61.8228 32.3406 56.3338 28.5793 50.7292 29.2313C45.1246 29.8833 41.5268 34.7017 42.6932 39.9934C43.8597 45.2852 49.3487 49.0465 54.9532 48.3946C60.5578 47.7426 64.1557 42.9242 62.9892 37.6324Z" fill="#F5F5F5"/>
<path d="M73.0448 63.8246C75.0479 59.163 72.1401 53.598 66.5502 51.3948C60.9602 49.1916 54.8048 51.1845 52.8017 55.8461C50.7986 60.5077 53.7063 66.0727 59.2963 68.2759C64.8863 70.4791 71.0417 68.4862 73.0448 63.8246Z" fill="#F5F5F5"/>
<path d="M43.574 23.724L37.3901 25.9036C37.1192 25.999 36.7895 25.8637 36.6646 25.6058C36.5398 25.3479 36.6614 25.0534 36.9322 24.9579L43.071 22.7943C43.3418 22.6988 43.6716 22.8342 43.7964 23.0921C43.9664 23.3341 43.8448 23.6286 43.574 23.724Z" fill="white"/>
<path d="M29.9135 28.5929L24.0921 30.6439C23.8214 30.7393 23.4917 30.6039 23.3668 30.3462C23.242 30.0884 23.3636 29.794 23.6343 29.6986L29.4557 27.6477C29.7265 27.5523 30.0562 27.6876 30.181 27.9454C30.3059 28.2032 30.1843 28.4975 29.9135 28.5929Z" fill="white"/>
</g>
</svg>
