<svg width="36" height="31" viewBox="0 0 36 31" fill="none" xmlns="http://www.w3.org/2000/svg">
<path d="M7.2938 18.7462V3.4662C7.2938 1.69167 5.88399 0.253907 4.14552 0.253907H3.14828C1.40982 0.253187 0 1.69167 0 3.4662V18.5425C0 27.7102 8.01669 31.9674 14.7872 29.3732C10.4181 27.9391 7.2938 23.6625 7.2938 18.7462Z" fill="black"/>
<path d="M28.7063 18.7462V8.75598V3.4662C28.7063 1.69167 30.1161 0.253906 31.8546 0.253906H32.8518C34.5903 0.253906 36.0001 1.69239 36.0001 3.4662V18.5425C36.0001 27.7102 27.9834 31.9674 21.2129 29.3732C25.582 27.9391 28.7063 23.6625 28.7063 18.7462Z" fill="black"/>
<path d="M21.6593 3.50589V20.351C21.6593 22.4062 20.0266 24.0721 18.0124 24.0721C15.9982 24.0721 14.3655 22.4062 14.3655 20.351V3.50589C14.3655 1.56945 15.9037 0 17.8015 0H18.2233C20.1211 0 21.6593 1.56945 21.6593 3.50589Z" fill="black"/>
</svg>
