<svg width="44" height="44" viewBox="0 0 44 44" fill="none" xmlns="http://www.w3.org/2000/svg">
<path d="M0 1.76C0 1.29322 0.185428 0.845556 0.515492 0.515492C0.845556 0.185428 1.29322 0 1.76 0V1.76H0Z" fill="white"/>
<path d="M1.76 0H3.52V1.76H1.76V0Z" fill="white"/>
<path d="M3.52 0H5.28V1.76H3.52V0Z" fill="white"/>
<path d="M5.28 0H7.04V1.76H5.28V0Z" fill="white"/>
<path d="M7.04 0H8.8V1.76H7.04V0Z" fill="white"/>
<path d="M8.8 0H10.56V1.76H8.8V0Z" fill="white"/>
<path d="M10.56 0C11.0268 0 11.4744 0.185428 11.8045 0.515492C12.1346 0.845556 12.32 1.29322 12.32 1.76H10.56V0Z" fill="white"/>
<path d="M15.84 1.76C15.84 1.29322 16.0254 0.845556 16.3555 0.515492C16.6856 0.185428 17.1332 0 17.6 0V1.76H15.84Z" fill="white"/>
<path d="M17.6 0H19.36V1.76H17.6V0Z" fill="white"/>
<path d="M19.36 0C19.8268 0 20.2744 0.185428 20.6045 0.515492C20.9346 0.845556 21.12 1.29322 21.12 1.76H19.36V0Z" fill="white"/>
<path d="M27.28 0C27.5134 0 27.7372 0.092714 27.9023 0.257746C28.0673 0.422778 28.16 0.646609 28.16 0.88C28.16 1.11339 28.0673 1.33722 27.9023 1.50225C27.7372 1.66729 27.5134 1.76 27.28 1.76C27.0466 1.76 26.8228 1.66729 26.6577 1.50225C26.4927 1.33722 26.4 1.11339 26.4 0.88C26.4 0.646609 26.4927 0.422778 26.6577 0.257746C26.8228 0.092714 27.0466 0 27.28 0Z" fill="white"/>
<path d="M31.68 1.76C31.68 1.29322 31.8654 0.845556 32.1955 0.515492C32.5256 0.185428 32.9732 0 33.44 0V1.76H31.68Z" fill="white"/>
<path d="M33.44 0H35.2V1.76H33.44V0Z" fill="white"/>
<path d="M35.2 0H36.96V1.76H35.2V0Z" fill="white"/>
<path d="M36.96 0H38.72V1.76H36.96V0Z" fill="white"/>
<path d="M38.72 0H40.48V1.76H38.72V0Z" fill="white"/>
<path d="M40.48 0H42.24V1.76H40.48V0Z" fill="white"/>
<path d="M42.24 0C42.7068 0 43.1544 0.185428 43.4845 0.515492C43.8146 0.845556 44 1.29322 44 1.76H42.24V0Z" fill="white"/>
<path d="M0 1.76H1.76V3.52H0V1.76Z" fill="white"/>
<path d="M10.56 1.76H12.32V3.52H10.56V1.76Z" fill="white"/>
<path d="M14.08 3.52C14.08 3.05322 14.2654 2.60556 14.5955 2.27549C14.9256 1.94543 15.3732 1.76 15.84 1.76V3.52H14.08Z" fill="white"/>
<path d="M15.84 3.52C16.3068 3.52 16.7544 3.33457 17.0845 3.00451C17.4146 2.67444 17.6 2.22678 17.6 1.76H15.84V3.52Z" fill="white"/>
<path d="M19.36 1.76H21.12V3.52H19.36V1.76Z" fill="white"/>
<path d="M21.12 1.76H22.88V3.52H21.12V1.76Z" fill="white"/>
<path d="M23.76 1.76C23.9934 1.76 24.2172 1.85271 24.3823 2.01775C24.5473 2.18278 24.64 2.40661 24.64 2.64C24.64 2.87339 24.5473 3.09722 24.3823 3.26225C24.2172 3.42729 23.9934 3.52 23.76 3.52H22.88V1.76H23.76Z" fill="white"/>
<path d="M31.68 1.76H33.44V3.52H31.68V1.76Z" fill="white"/>
<path d="M42.24 1.76H44V3.52H42.24V1.76Z" fill="white"/>
<path d="M0 3.52H1.76V5.28H0V3.52Z" fill="white"/>
<path d="M3.52 5.28C3.52 4.81322 3.70543 4.36556 4.03549 4.03549C4.36556 3.70543 4.81322 3.52 5.28 3.52V5.28H3.52Z" fill="white"/>
<path d="M5.28 3.52H7.04V5.28H5.28V3.52Z" fill="white"/>
<path d="M7.04 3.52C7.50678 3.52 7.95444 3.70543 8.28451 4.03549C8.61457 4.36556 8.8 4.81322 8.8 5.28H7.04V3.52Z" fill="white"/>
<path d="M10.56 3.52H12.32V5.28H10.56V3.52Z" fill="white"/>
<path d="M14.08 3.52H15.84V5.28H14.08V3.52Z" fill="white"/>
<path d="M19.36 3.52H21.12V5.28H19.36V3.52Z" fill="white"/>
<path d="M21.12 3.52H22.88V5.28H21.12V3.52Z" fill="white"/>
<path d="M25.52 3.52C25.2866 3.52 25.0628 3.61271 24.8977 3.77775C24.7327 3.94278 24.64 4.16661 24.64 4.4C24.64 4.63339 24.7327 4.85722 24.8977 5.02225C25.0628 5.18729 25.2866 5.28 25.52 5.28H26.4V3.52H25.52Z" fill="white"/>
<path d="M27.28 3.52C27.5134 3.52 27.7372 3.61271 27.9023 3.77775C28.0673 3.94278 28.16 4.16661 28.16 4.4C28.16 4.63339 28.0673 4.85722 27.9023 5.02225C27.7372 5.18729 27.5134 5.28 27.28 5.28H26.4V3.52H27.28Z" fill="white"/>
<path d="M31.68 3.52H33.44V5.28H31.68V3.52Z" fill="white"/>
<path d="M35.2 5.28C35.2 4.81322 35.3854 4.36556 35.7155 4.03549C36.0456 3.70543 36.4932 3.52 36.96 3.52V5.28H35.2Z" fill="white"/>
<path d="M36.96 3.52H38.72V5.28H36.96V3.52Z" fill="white"/>
<path d="M38.72 3.52C39.1868 3.52 39.6344 3.70543 39.9645 4.03549C40.2946 4.36556 40.48 4.81322 40.48 5.28H38.72V3.52Z" fill="white"/>
<path d="M42.24 3.52H44V5.28H42.24V3.52Z" fill="white"/>
<path d="M0 5.28H1.76V7.04H0V5.28Z" fill="white"/>
<path d="M3.52 5.28H5.28V7.04H3.52V5.28Z" fill="white"/>
<path d="M5.28 5.28H7.04V7.04H5.28V5.28Z" fill="white"/>
<path d="M7.04 5.28H8.8V7.04H7.04V5.28Z" fill="white"/>
<path d="M10.56 5.28H12.32V7.04H10.56V5.28Z" fill="white"/>
<path d="M14.08 5.28H15.84V7.04H14.08V5.28Z" fill="white"/>
<path d="M19.36 5.28H21.12V7.04H19.36V5.28Z" fill="white"/>
<path d="M21.12 7.04C21.5868 7.04 22.0344 6.85457 22.3645 6.52451C22.6946 6.19444 22.88 5.74678 22.88 5.28H21.12V7.04Z" fill="white"/>
<path d="M28.16 6.16C28.16 5.92661 28.2527 5.70278 28.4177 5.53775C28.5828 5.37271 28.8066 5.28 29.04 5.28C29.2734 5.28 29.4972 5.37271 29.6623 5.53775C29.8273 5.70278 29.92 5.92661 29.92 6.16V7.04H28.16V6.16Z" fill="white"/>
<path d="M31.68 5.28H33.44V7.04H31.68V5.28Z" fill="white"/>
<path d="M35.2 5.28H36.96V7.04H35.2V5.28Z" fill="white"/>
<path d="M36.96 5.28H38.72V7.04H36.96V5.28Z" fill="white"/>
<path d="M38.72 5.28H40.48V7.04H38.72V5.28Z" fill="white"/>
<path d="M42.24 5.28H44V7.04H42.24V5.28Z" fill="white"/>
<path d="M0 7.04H1.76V8.8H0V7.04Z" fill="white"/>
<path d="M3.52 7.04C3.52 7.50678 3.70543 7.95444 4.03549 8.28451C4.36556 8.61457 4.81322 8.8 5.28 8.8V7.04H3.52Z" fill="white"/>
<path d="M5.28 7.04H7.04V8.8H5.28V7.04Z" fill="white"/>
<path d="M7.04 8.8C7.50678 8.8 7.95444 8.61457 8.28451 8.28451C8.61457 7.95444 8.8 7.50678 8.8 7.04H7.04V8.8Z" fill="white"/>
<path d="M10.56 7.04H12.32V8.8H10.56V7.04Z" fill="white"/>
<path d="M14.08 7.04H15.84V8.8H14.08V7.04Z" fill="white"/>
<path d="M15.84 7.04H17.6V8.8H15.84V7.04Z" fill="white"/>
<path d="M17.6 7.04H19.36V8.8H17.6V7.04Z" fill="white"/>
<path d="M19.36 8.8C19.8268 8.8 20.2744 8.61457 20.6045 8.28451C20.9346 7.95444 21.12 7.50678 21.12 7.04H19.36V8.8Z" fill="white"/>
<path d="M22.88 8.8C22.88 8.33322 23.0654 7.88556 23.3955 7.55549C23.7256 7.22543 24.1732 7.04 24.64 7.04V8.8H22.88Z" fill="white"/>
<path d="M24.64 7.04H26.4V8.8H24.64V7.04Z" fill="white"/>
<path d="M26.4 7.04H28.16V8.8H26.4V7.04Z" fill="white"/>
<path d="M28.16 7.04H29.92V8.8H28.16V7.04Z" fill="white"/>
<path d="M31.68 7.04H33.44V8.8H31.68V7.04Z" fill="white"/>
<path d="M35.2 7.04C35.2 7.50678 35.3854 7.95444 35.7155 8.28451C36.0456 8.61457 36.4932 8.8 36.96 8.8V7.04H35.2Z" fill="white"/>
<path d="M36.96 7.04H38.72V8.8H36.96V7.04Z" fill="white"/>
<path d="M38.72 8.8C39.1868 8.8 39.6344 8.61457 39.9645 8.28451C40.2946 7.95444 40.48 7.50678 40.48 7.04H38.72V8.8Z" fill="white"/>
<path d="M42.24 7.04H44V8.8H42.24V7.04Z" fill="white"/>
<path d="M0 8.8H1.76V10.56H0V8.8Z" fill="white"/>
<path d="M10.56 8.8H12.32V10.56H10.56V8.8Z" fill="white"/>
<path d="M14.08 8.8H15.84V10.56H14.08V8.8Z" fill="white"/>
<path d="M15.84 10.56C16.3068 10.56 16.7544 10.3746 17.0845 10.0445C17.4146 9.71444 17.6 9.26678 17.6 8.8H15.84V10.56Z" fill="white"/>
<path d="M21.12 10.56C21.12 10.0932 21.3054 9.64556 21.6355 9.31549C21.9656 8.98543 22.4132 8.8 22.88 8.8V10.56H21.12Z" fill="white"/>
<path d="M22.88 8.8H24.64V10.56H22.88V8.8Z" fill="white"/>
<path d="M24.64 8.8H26.4V10.56H24.64V8.8Z" fill="white"/>
<path d="M28.16 8.8H29.92V10.56H28.16V8.8Z" fill="white"/>
<path d="M31.68 8.8H33.44V10.56H31.68V8.8Z" fill="white"/>
<path d="M42.24 8.8H44V10.56H42.24V8.8Z" fill="white"/>
<path d="M0 10.56C0 11.0268 0.185428 11.4744 0.515492 11.8045C0.845556 12.1346 1.29322 12.32 1.76 12.32V10.56H0Z" fill="white"/>
<path d="M1.76 10.56H3.52V12.32H1.76V10.56Z" fill="white"/>
<path d="M3.52 10.56H5.28V12.32H3.52V10.56Z" fill="white"/>
<path d="M5.28 10.56H7.04V12.32H5.28V10.56Z" fill="white"/>
<path d="M7.04 10.56H8.8V12.32H7.04V10.56Z" fill="white"/>
<path d="M8.8 10.56H10.56V12.32H8.8V10.56Z" fill="white"/>
<path d="M10.56 12.32C11.0268 12.32 11.4744 12.1346 11.8045 11.8045C12.1346 11.4744 12.32 11.0268 12.32 10.56H10.56V12.32Z" fill="white"/>
<path d="M14.08 11.44C14.08 11.6734 14.1727 11.8972 14.3377 12.0623C14.5028 12.2273 14.7266 12.32 14.96 12.32C15.1934 12.32 15.4172 12.2273 15.5823 12.0623C15.7473 11.8972 15.84 11.6734 15.84 11.44V10.56H14.08V11.44Z" fill="white"/>
<path d="M18.48 10.56C18.7134 10.56 18.9372 10.6527 19.1023 10.8177C19.2673 10.9828 19.36 11.2066 19.36 11.44C19.36 11.6734 19.2673 11.8972 19.1023 12.0623C18.9372 12.2273 18.7134 12.32 18.48 12.32C18.2466 12.32 18.0228 12.2273 17.8577 12.0623C17.6927 11.8972 17.6 11.6734 17.6 11.44C17.6 11.2066 17.6927 10.9828 17.8577 10.8177C18.0228 10.6527 18.2466 10.56 18.48 10.56Z" fill="white"/>
<path d="M21.12 11.44C21.12 11.6734 21.2127 11.8972 21.3777 12.0623C21.5428 12.2273 21.7666 12.32 22 12.32C22.2334 12.32 22.4572 12.2273 22.6223 12.0623C22.7873 11.8972 22.88 11.6734 22.88 11.44V10.56H21.12V11.44Z" fill="white"/>
<path d="M24.64 10.56H26.4V12.32H24.64V10.56Z" fill="white"/>
<path d="M28.16 10.56H29.92V12.32H28.16V10.56Z" fill="white"/>
<path d="M31.68 10.56C31.68 11.0268 31.8654 11.4744 32.1955 11.8045C32.5256 12.1346 32.9732 12.32 33.44 12.32V10.56H31.68Z" fill="white"/>
<path d="M33.44 10.56H35.2V12.32H33.44V10.56Z" fill="white"/>
<path d="M35.2 10.56H36.96V12.32H35.2V10.56Z" fill="white"/>
<path d="M36.96 10.56H38.72V12.32H36.96V10.56Z" fill="white"/>
<path d="M38.72 10.56H40.48V12.32H38.72V10.56Z" fill="white"/>
<path d="M40.48 10.56H42.24V12.32H40.48V10.56Z" fill="white"/>
<path d="M42.24 12.32C42.7068 12.32 43.1544 12.1346 43.4845 11.8045C43.8146 11.4744 44 11.0268 44 10.56H42.24V12.32Z" fill="white"/>
<path d="M20.24 12.32C20.4734 12.32 20.6972 12.4127 20.8623 12.5777C21.0273 12.7428 21.12 12.9666 21.12 13.2C21.12 13.4334 21.0273 13.6572 20.8623 13.8223C20.6972 13.9873 20.4734 14.08 20.24 14.08C20.0066 14.08 19.7828 13.9873 19.6177 13.8223C19.4527 13.6572 19.36 13.4334 19.36 13.2C19.36 12.9666 19.4527 12.7428 19.6177 12.5777C19.7828 12.4127 20.0066 12.32 20.24 12.32Z" fill="white"/>
<path d="M24.64 12.32H26.4V14.08H24.64V12.32Z" fill="white"/>
<path d="M28.16 13.2C28.16 13.4334 28.2527 13.6572 28.4177 13.8223C28.5828 13.9873 28.8066 14.08 29.04 14.08C29.2734 14.08 29.4972 13.9873 29.6623 13.8223C29.8273 13.6572 29.92 13.4334 29.92 13.2V12.32H28.16V13.2Z" fill="white"/>
<path d="M3.52 14.96C3.52 14.7266 3.61271 14.5028 3.77775 14.3377C3.94278 14.1727 4.16661 14.08 4.4 14.08C4.63339 14.08 4.85722 14.1727 5.02225 14.3377C5.18729 14.5028 5.28 14.7266 5.28 14.96V15.84H3.52V14.96Z" fill="white"/>
<path d="M9.68 14.08C9.44661 14.08 9.22278 14.1727 9.05775 14.3377C8.89271 14.5028 8.8 14.7266 8.8 14.96C8.8 15.1934 8.89271 15.4172 9.05775 15.5823C9.22278 15.7473 9.44661 15.84 9.68 15.84H10.56V14.08H9.68Z" fill="white"/>
<path d="M10.56 14.08H12.32V15.84H10.56V14.08Z" fill="white"/>
<path d="M12.32 14.08H14.08V15.84H12.32V14.08Z" fill="white"/>
<path d="M14.96 14.08C15.1934 14.08 15.4172 14.1727 15.5823 14.3377C15.7473 14.5028 15.84 14.7266 15.84 14.96C15.84 15.1934 15.7473 15.4172 15.5823 15.5823C15.4172 15.7473 15.1934 15.84 14.96 15.84H14.08V14.08H14.96Z" fill="white"/>
<path d="M21.12 14.96C21.12 14.7266 21.2127 14.5028 21.3777 14.3377C21.5428 14.1727 21.7666 14.08 22 14.08C22.2334 14.08 22.4572 14.1727 22.6223 14.3377C22.7873 14.5028 22.88 14.7266 22.88 14.96V15.84H21.12V14.96Z" fill="white"/>
<path d="M24.64 14.08H26.4V15.84H24.64V14.08Z" fill="white"/>
<path d="M27.28 14.08C27.5134 14.08 27.7372 14.1727 27.9023 14.3377C28.0673 14.5028 28.16 14.7266 28.16 14.96C28.16 15.1934 28.0673 15.4172 27.9023 15.5823C27.7372 15.7473 27.5134 15.84 27.28 15.84H26.4V14.08H27.28Z" fill="white"/>
<path d="M30.8 14.08C31.0334 14.08 31.2572 14.1727 31.4223 14.3377C31.5873 14.5028 31.68 14.7266 31.68 14.96C31.68 15.1934 31.5873 15.4172 31.4223 15.5823C31.2572 15.7473 31.0334 15.84 30.8 15.84C30.5666 15.84 30.3428 15.7473 30.1777 15.5823C30.0127 15.4172 29.92 15.1934 29.92 14.96C29.92 14.7266 30.0127 14.5028 30.1777 14.3377C30.3428 14.1727 30.5666 14.08 30.8 14.08Z" fill="white"/>
<path d="M34.32 14.08C34.0866 14.08 33.8628 14.1727 33.6977 14.3377C33.5327 14.5028 33.44 14.7266 33.44 14.96C33.44 15.1934 33.5327 15.4172 33.6977 15.5823C33.8628 15.7473 34.0866 15.84 34.32 15.84H35.2V14.08H34.32Z" fill="white"/>
<path d="M35.2 14.08H36.96V15.84H35.2V14.08Z" fill="white"/>
<path d="M36.96 14.08H38.72V15.84H36.96V14.08Z" fill="white"/>
<path d="M38.72 14.08H40.48V15.84H38.72V14.08Z" fill="white"/>
<path d="M41.36 14.08C41.5934 14.08 41.8172 14.1727 41.9823 14.3377C42.1473 14.5028 42.24 14.7266 42.24 14.96C42.24 15.1934 42.1473 15.4172 41.9823 15.5823C41.8172 15.7473 41.5934 15.84 41.36 15.84H40.48V14.08H41.36Z" fill="white"/>
<path d="M2.64 15.84C2.40661 15.84 2.18278 15.9327 2.01775 16.0977C1.85271 16.2628 1.76 16.4866 1.76 16.72C1.76 16.9534 1.85271 17.1772 2.01775 17.3423C2.18278 17.5073 2.40661 17.6 2.64 17.6H3.52V15.84H2.64Z" fill="white"/>
<path d="M3.52 15.84H5.28V17.6H3.52V15.84Z" fill="white"/>
<path d="M5.28 15.84H7.04V17.6H5.28V15.84Z" fill="white"/>
<path d="M7.92 15.84C8.15339 15.84 8.37722 15.9327 8.54225 16.0977C8.70729 16.2628 8.8 16.4866 8.8 16.72C8.8 16.9534 8.70729 17.1772 8.54225 17.3423C8.37722 17.5073 8.15339 17.6 7.92 17.6H7.04V15.84H7.92Z" fill="white"/>
<path d="M18.48 15.84C18.7134 15.84 18.9372 15.9327 19.1023 16.0977C19.2673 16.2628 19.36 16.4866 19.36 16.72C19.36 16.9534 19.2673 17.1772 19.1023 17.3423C18.9372 17.5073 18.7134 17.6 18.48 17.6C18.2466 17.6 18.0228 17.5073 17.8577 17.3423C17.6927 17.1772 17.6 16.9534 17.6 16.72C17.6 16.4866 17.6927 16.2628 17.8577 16.0977C18.0228 15.9327 18.2466 15.84 18.48 15.84Z" fill="white"/>
<path d="M21.12 16.72C21.12 16.9534 21.2127 17.1772 21.3777 17.3423C21.5428 17.5073 21.7666 17.6 22 17.6C22.2334 17.6 22.4572 17.5073 22.6223 17.3423C22.7873 17.1772 22.88 16.9534 22.88 16.72V15.84H21.12V16.72Z" fill="white"/>
<path d="M24.64 16.72C24.64 16.9534 24.7327 17.1772 24.8977 17.3423C25.0628 17.5073 25.2866 17.6 25.52 17.6C25.7534 17.6 25.9772 17.5073 26.1423 17.3423C26.3073 17.1772 26.4 16.9534 26.4 16.72V15.84H24.64V16.72Z" fill="white"/>
<path d="M28.16 16.72C28.16 16.4866 28.2527 16.2628 28.4177 16.0977C28.5828 15.9327 28.8066 15.84 29.04 15.84C29.2734 15.84 29.4972 15.9327 29.6623 16.0977C29.8273 16.2628 29.92 16.4866 29.92 16.72V17.6H28.16V16.72Z" fill="white"/>
<path d="M36.96 16.72C36.96 16.9534 37.0527 17.1772 37.2177 17.3423C37.3828 17.5073 37.6066 17.6 37.84 17.6C38.0734 17.6 38.2972 17.5073 38.4623 17.3423C38.6273 17.1772 38.72 16.9534 38.72 16.72V15.84H36.96V16.72Z" fill="white"/>
<path d="M42.24 16.72C42.24 16.4866 42.3327 16.2628 42.4977 16.0977C42.6628 15.9327 42.8866 15.84 43.12 15.84C43.3534 15.84 43.5772 15.9327 43.7423 16.0977C43.9073 16.2628 44 16.4866 44 16.72V17.6H42.24V16.72Z" fill="white"/>
<path d="M8.8 19.36C8.8 18.8932 8.98543 18.4456 9.31549 18.1155C9.64556 17.7854 10.0932 17.6 10.56 17.6V19.36H8.8Z" fill="white"/>
<path d="M11.44 17.6C11.6734 17.6 11.8972 17.6927 12.0623 17.8577C12.2273 18.0228 12.32 18.2466 12.32 18.48C12.32 18.7134 12.2273 18.9372 12.0623 19.1023C11.8972 19.2673 11.6734 19.36 11.44 19.36H10.56V17.6H11.44Z" fill="white"/>
<path d="M16.72 17.6C16.9534 17.6 17.1772 17.6927 17.3423 17.8577C17.5073 18.0228 17.6 18.2466 17.6 18.48C17.6 18.7134 17.5073 18.9372 17.3423 19.1023C17.1772 19.2673 16.9534 19.36 16.72 19.36C16.4866 19.36 16.2628 19.2673 16.0977 19.1023C15.9327 18.9372 15.84 18.7134 15.84 18.48C15.84 18.2466 15.9327 18.0228 16.0977 17.8577C16.2628 17.6927 16.4866 17.6 16.72 17.6Z" fill="white"/>
<path d="M22.88 18.48C22.88 18.2466 22.9727 18.0228 23.1377 17.8577C23.3028 17.6927 23.5266 17.6 23.76 17.6C23.9934 17.6 24.2172 17.6927 24.3823 17.8577C24.5473 18.0228 24.64 18.2466 24.64 18.48V19.36H22.88V18.48Z" fill="white"/>
<path d="M28.16 18.48C28.16 18.7134 28.2527 18.9372 28.4177 19.1023C28.5828 19.2673 28.8066 19.36 29.04 19.36C29.2734 19.36 29.4972 19.2673 29.6623 19.1023C29.8273 18.9372 29.92 18.7134 29.92 18.48V17.6H28.16V18.48Z" fill="white"/>
<path d="M35.2 18.48C35.2 18.2466 35.2927 18.0228 35.4577 17.8577C35.6228 17.6927 35.8466 17.6 36.08 17.6C36.3134 17.6 36.5372 17.6927 36.7023 17.8577C36.8673 18.0228 36.96 18.2466 36.96 18.48V19.36H35.2V18.48Z" fill="white"/>
<path d="M39.6 17.6C39.8334 17.6 40.0572 17.6927 40.2223 17.8577C40.3873 18.0228 40.48 18.2466 40.48 18.48C40.48 18.7134 40.3873 18.9372 40.2223 19.1023C40.0572 19.2673 39.8334 19.36 39.6 19.36C39.3666 19.36 39.1428 19.2673 38.9777 19.1023C38.8127 18.9372 38.72 18.7134 38.72 18.48C38.72 18.2466 38.8127 18.0228 38.9777 17.8577C39.1428 17.6927 39.3666 17.6 39.6 17.6Z" fill="white"/>
<path d="M42.24 17.6H44V19.36H42.24V17.6Z" fill="white"/>
<path d="M2.64 19.36C2.87339 19.36 3.09722 19.4527 3.26225 19.6177C3.42729 19.7828 3.52 20.0066 3.52 20.24C3.52 20.4734 3.42729 20.6972 3.26225 20.8623C3.09722 21.0273 2.87339 21.12 2.64 21.12C2.40661 21.12 2.18278 21.0273 2.01775 20.8623C1.85271 20.6972 1.76 20.4734 1.76 20.24C1.76 20.0066 1.85271 19.7828 2.01775 19.6177C2.18278 19.4527 2.40661 19.36 2.64 19.36Z" fill="white"/>
<path d="M5.28 21.12C5.28 20.6532 5.46543 20.2056 5.79549 19.8755C6.12556 19.5454 6.57322 19.36 7.04 19.36V21.12H5.28Z" fill="white"/>
<path d="M7.04 19.36H8.8V21.12H7.04V19.36Z" fill="white"/>
<path d="M8.8 19.36H10.56V21.12H8.8V19.36Z" fill="white"/>
<path d="M14.96 19.36C15.1934 19.36 15.4172 19.4527 15.5823 19.6177C15.7473 19.7828 15.84 20.0066 15.84 20.24C15.84 20.4734 15.7473 20.6972 15.5823 20.8623C15.4172 21.0273 15.1934 21.12 14.96 21.12C14.7266 21.12 14.5028 21.0273 14.3377 20.8623C14.1727 20.6972 14.08 20.4734 14.08 20.24C14.08 20.0066 14.1727 19.7828 14.3377 19.6177C14.5028 19.4527 14.7266 19.36 14.96 19.36Z" fill="white"/>
<path d="M22.88 19.36H24.64V21.12H22.88V19.36Z" fill="white"/>
<path d="M25.52 19.36C25.7534 19.36 25.9772 19.4527 26.1423 19.6177C26.3073 19.7828 26.4 20.0066 26.4 20.24C26.4 20.4734 26.3073 20.6972 26.1423 20.8623C25.9772 21.0273 25.7534 21.12 25.52 21.12H24.64V19.36H25.52Z" fill="white"/>
<path d="M32.56 19.36C32.3266 19.36 32.1028 19.4527 31.9377 19.6177C31.7727 19.7828 31.68 20.0066 31.68 20.24C31.68 20.4734 31.7727 20.6972 31.9377 20.8623C32.1028 21.0273 32.3266 21.12 32.56 21.12H33.44V19.36H32.56Z" fill="white"/>
<path d="M33.44 19.36H35.2V21.12H33.44V19.36Z" fill="white"/>
<path d="M35.2 19.36H36.96V21.12H35.2V19.36Z" fill="white"/>
<path d="M37.84 19.36C38.0734 19.36 38.2972 19.4527 38.4623 19.6177C38.6273 19.7828 38.72 20.0066 38.72 20.24C38.72 20.4734 38.6273 20.6972 38.4623 20.8623C38.2972 21.0273 38.0734 21.12 37.84 21.12H36.96V19.36H37.84Z" fill="white"/>
<path d="M42.24 19.36H44V21.12H42.24V19.36Z" fill="white"/>
<path d="M5.28 22C5.28 22.2334 5.37271 22.4572 5.53775 22.6223C5.70278 22.7873 5.92661 22.88 6.16 22.88C6.39339 22.88 6.61722 22.7873 6.78225 22.6223C6.94729 22.4572 7.04 22.2334 7.04 22V21.12H5.28V22Z" fill="white"/>
<path d="M8.8 21.12H10.56V22.88H8.8V21.12Z" fill="white"/>
<path d="M11.44 21.12C11.6734 21.12 11.8972 21.2127 12.0623 21.3777C12.2273 21.5428 12.32 21.7666 12.32 22C12.32 22.2334 12.2273 22.4572 12.0623 22.6223C11.8972 22.7873 11.6734 22.88 11.44 22.88H10.56V21.12H11.44Z" fill="white"/>
<path d="M22.88 22C22.88 22.2334 22.9727 22.4572 23.1377 22.6223C23.3028 22.7873 23.5266 22.88 23.76 22.88C23.9934 22.88 24.2172 22.7873 24.3823 22.6223C24.5473 22.4572 24.64 22.2334 24.64 22V21.12H22.88V22Z" fill="white"/>
<path d="M28.16 22C28.16 21.7666 28.2527 21.5428 28.4177 21.3777C28.5828 21.2127 28.8066 21.12 29.04 21.12C29.2734 21.12 29.4972 21.2127 29.6623 21.3777C29.8273 21.5428 29.92 21.7666 29.92 22V22.88H28.16V22Z" fill="white"/>
<path d="M33.44 21.12H35.2V22.88H33.44V21.12Z" fill="white"/>
<path d="M40.48 22.88C40.48 22.4132 40.6654 21.9656 40.9955 21.6355C41.3256 21.3054 41.7732 21.12 42.24 21.12V22.88H40.48Z" fill="white"/>
<path d="M42.24 21.12H44V22.88H42.24V21.12Z" fill="white"/>
<path d="M7.04 24.64C7.04 24.1732 7.22543 23.7256 7.55549 23.3955C7.88556 23.0654 8.33322 22.88 8.8 22.88V24.64H7.04Z" fill="white"/>
<path d="M8.8 24.64C9.26678 24.64 9.71444 24.4546 10.0445 24.1245C10.3746 23.7944 10.56 23.3468 10.56 22.88H8.8V24.64Z" fill="white"/>
<path d="M15.84 23.76C15.84 23.5266 15.9327 23.3028 16.0977 23.1377C16.2628 22.9727 16.4866 22.88 16.72 22.88C16.9534 22.88 17.1772 22.9727 17.3423 23.1377C17.5073 23.3028 17.6 23.5266 17.6 23.76V24.64H15.84V23.76Z" fill="white"/>
<path d="M20.24 22.88C20.4734 22.88 20.6972 22.9727 20.8623 23.1377C21.0273 23.3028 21.12 23.5266 21.12 23.76C21.12 23.9934 21.0273 24.2172 20.8623 24.3823C20.6972 24.5473 20.4734 24.64 20.24 24.64C20.0066 24.64 19.7828 24.5473 19.6177 24.3823C19.4527 24.2172 19.36 23.9934 19.36 23.76C19.36 23.5266 19.4527 23.3028 19.6177 23.1377C19.7828 22.9727 20.0066 22.88 20.24 22.88Z" fill="white"/>
<path d="M28.16 22.88H29.92V24.64H28.16V22.88Z" fill="white"/>
<path d="M33.44 23.76C33.44 23.9934 33.5327 24.2172 33.6977 24.3823C33.8628 24.5473 34.0866 24.64 34.32 24.64C34.5534 24.64 34.7772 24.5473 34.9423 24.3823C35.1073 24.2172 35.2 23.9934 35.2 23.76V22.88H33.44V23.76Z" fill="white"/>
<path d="M38.72 24.64C38.72 24.1732 38.9054 23.7256 39.2355 23.3955C39.5656 23.0654 40.0132 22.88 40.48 22.88V24.64H38.72Z" fill="white"/>
<path d="M40.48 22.88H42.24V24.64H40.48V22.88Z" fill="white"/>
<path d="M42.24 22.88H44V24.64H42.24V22.88Z" fill="white"/>
<path d="M0.88 24.64C0.646609 24.64 0.422778 24.7327 0.257746 24.8977C0.092714 25.0628 0 25.2866 0 25.52C0 25.7534 0.092714 25.9772 0.257746 26.1423C0.422778 26.3073 0.646609 26.4 0.88 26.4H1.76V24.64H0.88Z" fill="white"/>
<path d="M2.64 24.64C2.87339 24.64 3.09722 24.7327 3.26225 24.8977C3.42729 25.0628 3.52 25.2866 3.52 25.52C3.52 25.7534 3.42729 25.9772 3.26225 26.1423C3.09722 26.3073 2.87339 26.4 2.64 26.4H1.76V24.64H2.64Z" fill="white"/>
<path d="M6.16 24.64C5.92661 24.64 5.70278 24.7327 5.53775 24.8977C5.37271 25.0628 5.28 25.2866 5.28 25.52C5.28 25.7534 5.37271 25.9772 5.53775 26.1423C5.70278 26.3073 5.92661 26.4 6.16 26.4H7.04V24.64H6.16Z" fill="white"/>
<path d="M7.04 24.64H8.8V26.4H7.04V24.64Z" fill="white"/>
<path d="M11.44 24.64C11.6734 24.64 11.8972 24.7327 12.0623 24.8977C12.2273 25.0628 12.32 25.2866 12.32 25.52C12.32 25.7534 12.2273 25.9772 12.0623 26.1423C11.8972 26.3073 11.6734 26.4 11.44 26.4C11.2066 26.4 10.9828 26.3073 10.8177 26.1423C10.6527 25.9772 10.56 25.7534 10.56 25.52C10.56 25.2866 10.6527 25.0628 10.8177 24.8977C10.9828 24.7327 11.2066 24.64 11.44 24.64Z" fill="white"/>
<path d="M14.08 26.4C14.08 25.9332 14.2654 25.4856 14.5955 25.1555C14.9256 24.8254 15.3732 24.64 15.84 24.64V26.4H14.08Z" fill="white"/>
<path d="M15.84 24.64H17.6V26.4H15.84V24.64Z" fill="white"/>
<path d="M22 24.64C22.2334 24.64 22.4572 24.7327 22.6223 24.8977C22.7873 25.0628 22.88 25.2866 22.88 25.52C22.88 25.7534 22.7873 25.9772 22.6223 26.1423C22.4572 26.3073 22.2334 26.4 22 26.4C21.7666 26.4 21.5428 26.3073 21.3777 26.1423C21.2127 25.9772 21.12 25.7534 21.12 25.52C21.12 25.2866 21.2127 25.0628 21.3777 24.8977C21.5428 24.7327 21.7666 24.64 22 24.64Z" fill="white"/>
<path d="M28.16 24.64H29.92V26.4H28.16V24.64Z" fill="white"/>
<path d="M29.92 24.64H31.68V26.4H29.92V24.64Z" fill="white"/>
<path d="M32.56 24.64C32.7934 24.64 33.0172 24.7327 33.1823 24.8977C33.3473 25.0628 33.44 25.2866 33.44 25.52C33.44 25.7534 33.3473 25.9772 33.1823 26.1423C33.0172 26.3073 32.7934 26.4 32.56 26.4H31.68V24.64H32.56Z" fill="white"/>
<path d="M36.96 26.4C36.96 25.9332 37.1454 25.4856 37.4755 25.1555C37.8056 24.8254 38.2532 24.64 38.72 24.64V26.4H36.96Z" fill="white"/>
<path d="M38.72 26.4C39.1868 26.4 39.6344 26.2146 39.9645 25.8845C40.2946 25.5544 40.48 25.1068 40.48 24.64H38.72V26.4Z" fill="white"/>
<path d="M42.24 24.64H44V26.4H42.24V24.64Z" fill="white"/>
<path d="M3.52 27.28C3.52 27.0466 3.61271 26.8228 3.77775 26.6577C3.94278 26.4927 4.16661 26.4 4.4 26.4C4.63339 26.4 4.85722 26.4927 5.02225 26.6577C5.18729 26.8228 5.28 27.0466 5.28 27.28V28.16H3.52V27.28Z" fill="white"/>
<path d="M7.04 26.4H8.8V28.16H7.04V26.4Z" fill="white"/>
<path d="M12.32 28.16C12.32 27.6932 12.5054 27.2456 12.8355 26.9155C13.1656 26.5854 13.6132 26.4 14.08 26.4V28.16H12.32Z" fill="white"/>
<path d="M14.08 26.4H15.84V28.16H14.08V26.4Z" fill="white"/>
<path d="M15.84 26.4H17.6V28.16H15.84V26.4Z" fill="white"/>
<path d="M17.6 26.4H19.36V28.16H17.6V26.4Z" fill="white"/>
<path d="M20.24 26.4C20.4734 26.4 20.6972 26.4927 20.8623 26.6577C21.0273 26.8228 21.12 27.0466 21.12 27.28C21.12 27.5134 21.0273 27.7372 20.8623 27.9023C20.6972 28.0673 20.4734 28.16 20.24 28.16H19.36V26.4H20.24Z" fill="white"/>
<path d="M22.88 28.16C22.88 27.6932 23.0654 27.2456 23.3955 26.9155C23.7256 26.5854 24.1732 26.4 24.64 26.4V28.16H22.88Z" fill="white"/>
<path d="M24.64 26.4H26.4V28.16H24.64V26.4Z" fill="white"/>
<path d="M26.4 26.4H28.16V28.16H26.4V26.4Z" fill="white"/>
<path d="M28.16 26.4H29.92V28.16H28.16V26.4Z" fill="white"/>
<path d="M29.92 26.4H31.68V28.16H29.92V26.4Z" fill="white"/>
<path d="M33.44 28.16C33.44 27.6932 33.6254 27.2456 33.9555 26.9155C34.2856 26.5854 34.7332 26.4 35.2 26.4V28.16H33.44Z" fill="white"/>
<path d="M35.2 26.4H36.96V28.16H35.2V26.4Z" fill="white"/>
<path d="M36.96 26.4H38.72V28.16H36.96V26.4Z" fill="white"/>
<path d="M41.36 26.4C41.1266 26.4 40.9028 26.4927 40.7377 26.6577C40.5727 26.8228 40.48 27.0466 40.48 27.28C40.48 27.5134 40.5727 27.7372 40.7377 27.9023C40.9028 28.0673 41.1266 28.16 41.36 28.16H42.24V26.4H41.36Z" fill="white"/>
<path d="M42.24 26.4H44V28.16H42.24V26.4Z" fill="white"/>
<path d="M0.88 28.16C0.646609 28.16 0.422778 28.2527 0.257746 28.4177C0.092714 28.5828 0 28.8066 0 29.04C0 29.2734 0.092714 29.4972 0.257746 29.6623C0.422778 29.8273 0.646609 29.92 0.88 29.92H1.76V28.16H0.88Z" fill="white"/>
<path d="M1.76 28.16H3.52V29.92H1.76V28.16Z" fill="white"/>
<path d="M3.52 28.16H5.28V29.92H3.52V28.16Z" fill="white"/>
<path d="M5.28 28.16H7.04V29.92H5.28V28.16Z" fill="white"/>
<path d="M7.04 28.16H8.8V29.92H7.04V28.16Z" fill="white"/>
<path d="M8.8 28.16H10.56V29.92H8.8V28.16Z" fill="white"/>
<path d="M10.56 28.16H12.32V29.92H10.56V28.16Z" fill="white"/>
<path d="M12.32 28.16H14.08V29.92H12.32V28.16Z" fill="white"/>
<path d="M14.08 28.16H15.84V29.92H14.08V28.16Z" fill="white"/>
<path d="M22.88 29.04C22.88 29.2734 22.9727 29.4972 23.1377 29.6623C23.3028 29.8273 23.5266 29.92 23.76 29.92C23.9934 29.92 24.2172 29.8273 24.3823 29.6623C24.5473 29.4972 24.64 29.2734 24.64 29.04V28.16H22.88V29.04Z" fill="white"/>
<path d="M28.16 28.16H29.92V29.92H28.16V28.16Z" fill="white"/>
<path d="M29.92 28.16H31.68V29.92H29.92V28.16Z" fill="white"/>
<path d="M31.68 28.16H33.44V29.92H31.68V28.16Z" fill="white"/>
<path d="M33.44 28.16H35.2V29.92H33.44V28.16Z" fill="white"/>
<path d="M35.2 28.16H36.96V29.92H35.2V28.16Z" fill="white"/>
<path d="M36.96 29.92C37.4268 29.92 37.8744 29.7346 38.2045 29.4045C38.5346 29.0744 38.72 28.6268 38.72 28.16H36.96V29.92Z" fill="white"/>
<path d="M42.24 28.16H44V29.92H42.24V28.16Z" fill="white"/>
<path d="M14.08 29.92H15.84V31.68H14.08V29.92Z" fill="white"/>
<path d="M15.84 29.92C16.3068 29.92 16.7544 30.1054 17.0845 30.4355C17.4146 30.7656 17.6 31.2132 17.6 31.68H15.84V29.92Z" fill="white"/>
<path d="M25.52 29.92C25.2866 29.92 25.0628 30.0127 24.8977 30.1777C24.7327 30.3428 24.64 30.5666 24.64 30.8C24.64 31.0334 24.7327 31.2572 24.8977 31.4223C25.0628 31.5873 25.2866 31.68 25.52 31.68H26.4V29.92H25.52Z" fill="white"/>
<path d="M26.4 29.92H28.16V31.68H26.4V29.92Z" fill="white"/>
<path d="M28.16 29.92H29.92V31.68H28.16V29.92Z" fill="white"/>
<path d="M35.2 29.92H36.96V31.68H35.2V29.92Z" fill="white"/>
<path d="M41.36 29.92C41.1266 29.92 40.9028 30.0127 40.7377 30.1777C40.5727 30.3428 40.48 30.5666 40.48 30.8C40.48 31.0334 40.5727 31.2572 40.7377 31.4223C40.9028 31.5873 41.1266 31.68 41.36 31.68H42.24V29.92H41.36Z" fill="white"/>
<path d="M42.24 29.92H44V31.68H42.24V29.92Z" fill="white"/>
<path d="M0 33.44C0 32.9732 0.185428 32.5256 0.515492 32.1955C0.845556 31.8654 1.29322 31.68 1.76 31.68V33.44H0Z" fill="white"/>
<path d="M1.76 31.68H3.52V33.44H1.76V31.68Z" fill="white"/>
<path d="M3.52 31.68H5.28V33.44H3.52V31.68Z" fill="white"/>
<path d="M5.28 31.68H7.04V33.44H5.28V31.68Z" fill="white"/>
<path d="M7.04 31.68H8.8V33.44H7.04V31.68Z" fill="white"/>
<path d="M8.8 31.68H10.56V33.44H8.8V31.68Z" fill="white"/>
<path d="M10.56 31.68C11.0268 31.68 11.4744 31.8654 11.8045 32.1955C12.1346 32.5256 12.32 32.9732 12.32 33.44H10.56V31.68Z" fill="white"/>
<path d="M14.08 31.68H15.84V33.44H14.08V31.68Z" fill="white"/>
<path d="M15.84 31.68H17.6V33.44H15.84V31.68Z" fill="white"/>
<path d="M17.6 31.68H19.36V33.44H17.6V31.68Z" fill="white"/>
<path d="M19.36 31.68C19.8268 31.68 20.2744 31.8654 20.6045 32.1955C20.9346 32.5256 21.12 32.9732 21.12 33.44H19.36V31.68Z" fill="white"/>
<path d="M26.4 31.68C26.4 32.1468 26.5854 32.5944 26.9155 32.9245C27.2456 33.2546 27.6932 33.44 28.16 33.44V31.68H26.4Z" fill="white"/>
<path d="M28.16 31.68H29.92V33.44H28.16V31.68Z" fill="white"/>
<path d="M32.56 31.68C32.7934 31.68 33.0172 31.7727 33.1823 31.9377C33.3473 32.1028 33.44 32.3266 33.44 32.56C33.44 32.7934 33.3473 33.0172 33.1823 33.1823C33.0172 33.3473 32.7934 33.44 32.56 33.44C32.3266 33.44 32.1028 33.3473 31.9377 33.1823C31.7727 33.0172 31.68 32.7934 31.68 32.56C31.68 32.3266 31.7727 32.1028 31.9377 31.9377C32.1028 31.7727 32.3266 31.68 32.56 31.68Z" fill="white"/>
<path d="M35.2 31.68H36.96V33.44H35.2V31.68Z" fill="white"/>
<path d="M39.6 31.68C39.8334 31.68 40.0572 31.7727 40.2223 31.9377C40.3873 32.1028 40.48 32.3266 40.48 32.56C40.48 32.7934 40.3873 33.0172 40.2223 33.1823C40.0572 33.3473 39.8334 33.44 39.6 33.44C39.3666 33.44 39.1428 33.3473 38.9777 33.1823C38.8127 33.0172 38.72 32.7934 38.72 32.56C38.72 32.3266 38.8127 32.1028 38.9777 31.9377C39.1428 31.7727 39.3666 31.68 39.6 31.68Z" fill="white"/>
<path d="M42.24 32.56C42.24 32.7934 42.3327 33.0172 42.4977 33.1823C42.6628 33.3473 42.8866 33.44 43.12 33.44C43.3534 33.44 43.5772 33.3473 43.7423 33.1823C43.9073 33.0172 44 32.7934 44 32.56V31.68H42.24V32.56Z" fill="white"/>
<path d="M0 33.44H1.76V35.2H0V33.44Z" fill="white"/>
<path d="M10.56 33.44H12.32V35.2H10.56V33.44Z" fill="white"/>
<path d="M14.08 33.44C14.08 33.9068 14.2654 34.3544 14.5955 34.6845C14.9256 35.0146 15.3732 35.2 15.84 35.2V33.44H14.08Z" fill="white"/>
<path d="M15.84 33.44H17.6V35.2H15.84V33.44Z" fill="white"/>
<path d="M17.6 33.44H19.36V35.2H17.6V33.44Z" fill="white"/>
<path d="M19.36 33.44H21.12V35.2H19.36V33.44Z" fill="white"/>
<path d="M21.12 33.44H22.88V35.2H21.12V33.44Z" fill="white"/>
<path d="M22.88 33.44H24.64V35.2H22.88V33.44Z" fill="white"/>
<path d="M24.64 33.44C25.1068 33.44 25.5544 33.6254 25.8845 33.9555C26.2146 34.2856 26.4 34.7332 26.4 35.2H24.64V33.44Z" fill="white"/>
<path d="M28.16 33.44H29.92V35.2H28.16V33.44Z" fill="white"/>
<path d="M35.2 33.44H36.96V35.2H35.2V33.44Z" fill="white"/>
<path d="M40.48 34.32C40.48 34.0866 40.5727 33.8628 40.7377 33.6977C40.9028 33.5327 41.1266 33.44 41.36 33.44C41.5934 33.44 41.8172 33.5327 41.9823 33.6977C42.1473 33.8628 42.24 34.0866 42.24 34.32V35.2H40.48V34.32Z" fill="white"/>
<path d="M0 35.2H1.76V36.96H0V35.2Z" fill="white"/>
<path d="M3.52 36.96C3.52 36.4932 3.70543 36.0456 4.03549 35.7155C4.36556 35.3854 4.81322 35.2 5.28 35.2V36.96H3.52Z" fill="white"/>
<path d="M5.28 35.2H7.04V36.96H5.28V35.2Z" fill="white"/>
<path d="M7.04 35.2C7.50678 35.2 7.95444 35.3854 8.28451 35.7155C8.61457 36.0456 8.8 36.4932 8.8 36.96H7.04V35.2Z" fill="white"/>
<path d="M10.56 35.2H12.32V36.96H10.56V35.2Z" fill="white"/>
<path d="M17.6 35.2H19.36V36.96H17.6V35.2Z" fill="white"/>
<path d="M19.36 35.2H21.12V36.96H19.36V35.2Z" fill="white"/>
<path d="M21.12 35.2H22.88V36.96H21.12V35.2Z" fill="white"/>
<path d="M22.88 35.2H24.64V36.96H22.88V35.2Z" fill="white"/>
<path d="M24.64 35.2H26.4V36.96H24.64V35.2Z" fill="white"/>
<path d="M26.4 35.2H28.16V36.96H26.4V35.2Z" fill="white"/>
<path d="M28.16 35.2H29.92V36.96H28.16V35.2Z" fill="white"/>
<path d="M29.92 35.2H31.68V36.96H29.92V35.2Z" fill="white"/>
<path d="M31.68 35.2H33.44V36.96H31.68V35.2Z" fill="white"/>
<path d="M33.44 35.2H35.2V36.96H33.44V35.2Z" fill="white"/>
<path d="M35.2 35.2H36.96V36.96H35.2V35.2Z" fill="white"/>
<path d="M36.96 35.2C37.4268 35.2 37.8744 35.3854 38.2045 35.7155C38.5346 36.0456 38.72 36.4932 38.72 36.96H36.96V35.2Z" fill="white"/>
<path d="M40.48 36.08C40.48 36.3134 40.5727 36.5372 40.7377 36.7023C40.9028 36.8673 41.1266 36.96 41.36 36.96C41.5934 36.96 41.8172 36.8673 41.9823 36.7023C42.1473 36.5372 42.24 36.3134 42.24 36.08V35.2H40.48V36.08Z" fill="white"/>
<path d="M0 36.96H1.76V38.72H0V36.96Z" fill="white"/>
<path d="M3.52 36.96H5.28V38.72H3.52V36.96Z" fill="white"/>
<path d="M5.28 36.96H7.04V38.72H5.28V36.96Z" fill="white"/>
<path d="M7.04 36.96H8.8V38.72H7.04V36.96Z" fill="white"/>
<path d="M10.56 36.96H12.32V38.72H10.56V36.96Z" fill="white"/>
<path d="M17.6 36.96H19.36V38.72H17.6V36.96Z" fill="white"/>
<path d="M21.12 36.96H22.88V38.72H21.12V36.96Z" fill="white"/>
<path d="M26.4 36.96H28.16V38.72H26.4V36.96Z" fill="white"/>
<path d="M35.2 36.96H36.96V38.72H35.2V36.96Z" fill="white"/>
<path d="M36.96 36.96H38.72V38.72H36.96V36.96Z" fill="white"/>
<path d="M39.6 36.96C39.8334 36.96 40.0572 37.0527 40.2223 37.2177C40.3873 37.3828 40.48 37.6066 40.48 37.84C40.48 38.0734 40.3873 38.2972 40.2223 38.4623C40.0572 38.6273 39.8334 38.72 39.6 38.72H38.72V36.96H39.6Z" fill="white"/>
<path d="M0 38.72H1.76V40.48H0V38.72Z" fill="white"/>
<path d="M3.52 38.72C3.52 39.1868 3.70543 39.6344 4.03549 39.9645C4.36556 40.2946 4.81322 40.48 5.28 40.48V38.72H3.52Z" fill="white"/>
<path d="M5.28 38.72H7.04V40.48H5.28V38.72Z" fill="white"/>
<path d="M7.04 40.48C7.50678 40.48 7.95444 40.2946 8.28451 39.9645C8.61457 39.6344 8.8 39.1868 8.8 38.72H7.04V40.48Z" fill="white"/>
<path d="M10.56 38.72H12.32V40.48H10.56V38.72Z" fill="white"/>
<path d="M14.96 38.72C14.7266 38.72 14.5028 38.8127 14.3377 38.9777C14.1727 39.1428 14.08 39.3666 14.08 39.6C14.08 39.8334 14.1727 40.0572 14.3377 40.2223C14.5028 40.3873 14.7266 40.48 14.96 40.48H15.84V38.72H14.96Z" fill="white"/>
<path d="M15.84 38.72H17.6V40.48H15.84V38.72Z" fill="white"/>
<path d="M17.6 38.72H19.36V40.48H17.6V38.72Z" fill="white"/>
<path d="M21.12 38.72H22.88V40.48H21.12V38.72Z" fill="white"/>
<path d="M25.52 38.72C25.2866 38.72 25.0628 38.8127 24.8977 38.9777C24.7327 39.1428 24.64 39.3666 24.64 39.6C24.64 39.8334 24.7327 40.0572 24.8977 40.2223C25.0628 40.3873 25.2866 40.48 25.52 40.48H26.4V38.72H25.52Z" fill="white"/>
<path d="M26.4 38.72H28.16V40.48H26.4V38.72Z" fill="white"/>
<path d="M29.04 38.72C29.2734 38.72 29.4972 38.8127 29.6623 38.9777C29.8273 39.1428 29.92 39.3666 29.92 39.6C29.92 39.8334 29.8273 40.0572 29.6623 40.2223C29.4972 40.3873 29.2734 40.48 29.04 40.48H28.16V38.72H29.04Z" fill="white"/>
<path d="M31.68 39.6C31.68 39.3666 31.7727 39.1428 31.9377 38.9777C32.1028 38.8127 32.3266 38.72 32.56 38.72C32.7934 38.72 33.0172 38.8127 33.1823 38.9777C33.3473 39.1428 33.44 39.3666 33.44 39.6V40.48H31.68V39.6Z" fill="white"/>
<path d="M35.2 38.72H36.96V40.48H35.2V38.72Z" fill="white"/>
<path d="M36.96 38.72H38.72V40.48H36.96V38.72Z" fill="white"/>
<path d="M41.36 38.72C41.1266 38.72 40.9028 38.8127 40.7377 38.9777C40.5727 39.1428 40.48 39.3666 40.48 39.6C40.48 39.8334 40.5727 40.0572 40.7377 40.2223C40.9028 40.3873 41.1266 40.48 41.36 40.48H42.24V38.72H41.36Z" fill="white"/>
<path d="M43.12 38.72C43.3534 38.72 43.5772 38.8127 43.7423 38.9777C43.9073 39.1428 44 39.3666 44 39.6C44 39.8334 43.9073 40.0572 43.7423 40.2223C43.5772 40.3873 43.3534 40.48 43.12 40.48H42.24V38.72H43.12Z" fill="white"/>
<path d="M0 40.48H1.76V42.24H0V40.48Z" fill="white"/>
<path d="M10.56 40.48H12.32V42.24H10.56V40.48Z" fill="white"/>
<path d="M15.84 40.48C15.84 40.9468 16.0254 41.3944 16.3555 41.7245C16.6856 42.0546 17.1332 42.24 17.6 42.24V40.48H15.84Z" fill="white"/>
<path d="M17.6 42.24C18.0668 42.24 18.5144 42.0546 18.8445 41.7245C19.1746 41.3944 19.36 40.9468 19.36 40.48H17.6V42.24Z" fill="white"/>
<path d="M21.12 40.48H22.88V42.24H21.12V40.48Z" fill="white"/>
<path d="M29.92 42.24C29.92 41.7732 30.1054 41.3256 30.4355 40.9955C30.7656 40.6654 31.2132 40.48 31.68 40.48V42.24H29.92Z" fill="white"/>
<path d="M31.68 40.48H33.44V42.24H31.68V40.48Z" fill="white"/>
<path d="M33.44 40.48H35.2V42.24H33.44V40.48Z" fill="white"/>
<path d="M35.2 40.48H36.96V42.24H35.2V40.48Z" fill="white"/>
<path d="M36.96 40.48H38.72V42.24H36.96V40.48Z" fill="white"/>
<path d="M0 42.24C0 42.7068 0.185428 43.1544 0.515492 43.4845C0.845556 43.8146 1.29322 44 1.76 44V42.24H0Z" fill="white"/>
<path d="M1.76 42.24H3.52V44H1.76V42.24Z" fill="white"/>
<path d="M3.52 42.24H5.28V44H3.52V42.24Z" fill="white"/>
<path d="M5.28 42.24H7.04V44H5.28V42.24Z" fill="white"/>
<path d="M7.04 42.24H8.8V44H7.04V42.24Z" fill="white"/>
<path d="M8.8 42.24H10.56V44H8.8V42.24Z" fill="white"/>
<path d="M10.56 44C11.0268 44 11.4744 43.8146 11.8045 43.4845C12.1346 43.1544 12.32 42.7068 12.32 42.24H10.56V44Z" fill="white"/>
<path d="M20.24 42.24C20.0066 42.24 19.7828 42.3327 19.6177 42.4977C19.4527 42.6628 19.36 42.8866 19.36 43.12C19.36 43.3534 19.4527 43.5772 19.6177 43.7423C19.7828 43.9073 20.0066 44 20.24 44H21.12V42.24H20.24Z" fill="white"/>
<path d="M21.12 44C21.5868 44 22.0344 43.8146 22.3645 43.4845C22.6946 43.1544 22.88 42.7068 22.88 42.24H21.12V44Z" fill="white"/>
<path d="M29.92 43.12C29.92 43.3534 30.0127 43.5772 30.1777 43.7423C30.3428 43.9073 30.5666 44 30.8 44C31.0334 44 31.2572 43.9073 31.4223 43.7423C31.5873 43.5772 31.68 43.3534 31.68 43.12V42.24H29.92V43.12Z" fill="white"/>
<path d="M33.44 42.24C33.44 42.7068 33.6254 43.1544 33.9555 43.4845C34.2856 43.8146 34.7332 44 35.2 44V42.24H33.44Z" fill="white"/>
<path d="M35.2 42.24H36.96V44H35.2V42.24Z" fill="white"/>
<path d="M36.96 44C37.4268 44 37.8744 43.8146 38.2045 43.4845C38.5346 43.1544 38.72 42.7068 38.72 42.24H36.96V44Z" fill="white"/>
<path d="M43.12 42.24C43.3534 42.24 43.5772 42.3327 43.7423 42.4977C43.9073 42.6628 44 42.8866 44 43.12C44 43.3534 43.9073 43.5772 43.7423 43.7423C43.5772 43.9073 43.3534 44 43.12 44C42.8866 44 42.6628 43.9073 42.4977 43.7423C42.3327 43.5772 42.24 43.3534 42.24 43.12C42.24 42.8866 42.3327 42.6628 42.4977 42.4977C42.6628 42.3327 42.8866 42.24 43.12 42.24Z" fill="white"/>
</svg>
